<svg width="60" height="58" viewBox="0 0 60 58" fill="none" xmlns="http://www.w3.org/2000/svg">
    <path d="M59.8431 21.8415C59.6507 21.248 59.2883 20.724 58.8007 20.3347C58.3132 19.9453 57.722 19.7078 57.1006 19.6515L39.7803 18.079L32.9353 2.05335C32.4298 0.875951 31.28 0.116211 30 0.116211C28.7201 0.116211 27.5698 0.875951 27.0676 2.05335L20.2226 18.079L2.8996 19.6515C1.62962 19.7687 0.554286 20.6288 0.157014 21.8415C-0.0365673 22.4356 -0.0516253 23.0734 0.113705 23.6759C0.279036 24.2785 0.617491 24.8193 1.08715 25.2313L14.1799 36.7117L10.3196 53.7144C10.0371 54.9645 10.5223 56.2574 11.5597 57.0072C12.103 57.4025 12.7578 57.6152 13.4297 57.6147C14.0056 57.6147 14.5708 57.4584 15.0648 57.1623L30 48.2321L44.9326 57.1623C45.4682 57.4828 46.0862 57.639 46.7098 57.6114C47.3335 57.5838 47.9352 57.3737 48.4405 57.0072C49.4778 56.2574 49.963 54.9645 49.6806 53.7144L45.8202 36.7118L58.9129 25.2315C59.3826 24.8194 59.7211 24.2786 59.8865 23.6761C60.0518 23.0735 60.0367 22.4357 59.8431 21.8416V21.8415Z" fill="#DEC5A7"/>
</svg>
