<svg width="60" height="60" viewBox="0 0 60 60" fill="none" xmlns="http://www.w3.org/2000/svg">
    <g clip-path="url(#clip0_232_3326)">
        <path d="M59.8432 21.8415C59.6508 21.248 59.2884 20.724 58.8008 20.3347C58.3133 19.9453 57.7221 19.7078 57.1007 19.6515L39.7804 18.079L32.9354 2.05335C32.43 0.875951 31.2801 0.116211 30.0002 0.116211C28.7202 0.116211 27.5699 0.875951 27.0677 2.05335L20.2227 18.079L2.89972 19.6515C1.62974 19.7687 0.554409 20.6288 0.157136 21.8415C-0.0364453 22.4356 -0.0515032 23.0734 0.113827 23.6759C0.279158 24.2785 0.617613 24.8193 1.08727 25.2313L14.18 36.7117L10.3197 53.7144C10.0373 54.9645 10.5224 56.2574 11.5598 57.0072C12.1031 57.4025 12.7579 57.6152 13.4298 57.6147C14.0057 57.6147 14.5709 57.4584 15.0649 57.1623L30.0002 48.2321L44.9327 57.1623C45.4683 57.4828 46.0863 57.639 46.71 57.6114C47.3336 57.5838 47.9354 57.3737 48.4406 57.0072C49.4779 56.2574 49.9632 54.9645 49.6807 53.7144L45.8203 36.7118L58.913 25.2315C59.3828 24.8194 59.7212 24.2786 59.8866 23.6761C60.0519 23.0735 60.0368 22.4357 59.8432 21.8416V21.8415Z" fill="#9C6628"/>
    </g>
    <defs>
        <clipPath id="clip0_232_3326">
            <rect width="60" height="60" fill="white"/>
        </clipPath>
    </defs>
</svg>
