<svg width="24" height="24" viewBox="0 0 24 24" fill="none" xmlns="http://www.w3.org/2000/svg">
    <g clip-path="url(#clip0_121_6892)">
        <path d="M10.8188 16.9049C8.9582 16.7108 7.28063 16.2526 5.84437 15.1293C5.66615 14.9895 5.48216 14.8548 5.31953 14.6987C4.69088 14.0949 4.62754 13.4034 5.12498 12.6908C5.55053 12.081 6.26489 11.9179 7.00741 12.2681C7.15118 12.3359 7.28817 12.4206 7.41938 12.5116C10.0961 14.3508 13.7732 14.4016 16.46 12.5943C16.7262 12.3902 17.0107 12.2238 17.3405 12.1389C17.9817 11.9742 18.5797 12.2097 18.9238 12.7708C19.317 13.4115 19.3119 14.0369 18.8276 14.5343C18.0845 15.2969 17.191 15.8487 16.1981 16.2338C15.2593 16.5977 14.231 16.781 13.2132 16.9026C13.3668 17.0698 13.4392 17.152 13.5352 17.2485C14.9172 18.637 16.3052 20.0197 17.6826 21.4125C18.1519 21.8871 18.2499 22.4755 17.9915 23.0275C17.709 23.6307 17.0766 24.0276 16.4565 23.9852C16.0636 23.958 15.7572 23.7625 15.485 23.4882C14.4421 22.4388 13.3796 21.4087 12.3578 20.3394C12.0605 20.0285 11.9174 20.0873 11.655 20.3573C10.6059 21.4374 9.5396 22.5009 8.46705 23.5583C7.98544 24.0332 7.41234 24.1186 6.85383 23.8474C6.26012 23.5596 5.88232 22.9536 5.91148 22.3445C5.93159 21.9326 6.13418 21.6179 6.41696 21.3356C7.78461 19.9699 9.14848 18.6008 10.5129 17.2329C10.6031 17.1419 10.6873 17.0454 10.8188 16.9049Z" fill="#A3864D"/>
        <path d="M11.9522 12.1479C8.633 12.1366 5.91129 9.38501 5.93064 6.06054C5.94975 2.69937 8.67322 -0.0092764 12.0251 2.38782e-05C15.3837 0.0090728 18.0796 2.75668 18.0627 6.15279C18.0456 9.47047 15.3051 12.1595 11.9522 12.1479ZM14.9688 6.06858C14.963 4.41791 13.6484 3.1038 12.001 3.1023C10.3397 3.10054 9.01331 4.43852 9.02613 6.10427C9.03845 7.74866 10.3644 9.05347 12.0163 9.04744C13.6632 9.04165 14.9743 7.719 14.9688 6.06858Z" fill="#A3864D"/>
    </g>
    <defs>
        <clipPath id="clip0_121_6892">
            <rect width="24" height="24" fill="white"/>
        </clipPath>
    </defs>
</svg>
