<svg width="24" height="24" viewBox="0 0 24 24" fill="none" xmlns="http://www.w3.org/2000/svg">
    <g clip-path="url(#clip0_310_3330)">
        <path d="M10.007 3L8 2.986C7.9963 2.19278 7.67859 1.43331 7.11639 0.873724C6.55418 0.314139 5.79323 -8.63726e-06 5 1.78109e-10L3 1.7811e-10C2.20435 1.7811e-10 1.44129 0.31607 0.87868 0.87868C0.31607 1.44129 1.7811e-10 2.20435 1.78109e-10 3L1.78109e-10 5C-2.16246e-06 5.79444 0.315107 6.55644 0.876203 7.11885C1.4373 7.68126 2.19856 7.99815 2.993 8L2.979 9.993C2.97808 10.1244 3.00306 10.2547 3.05253 10.3764C3.102 10.4982 3.17497 10.609 3.26729 10.7025C3.3596 10.796 3.46945 10.8704 3.59054 10.9215C3.71163 10.9725 3.84159 10.9992 3.973 11H3.979C4.24301 11 4.49631 10.8956 4.68364 10.7096C4.87098 10.5236 4.97715 10.271 4.979 10.007L4.993 8H5C5.79565 8 6.55871 7.68393 7.12132 7.12132C7.68393 6.55871 8 5.79565 8 5V4.986L9.993 5H10C10.1313 5.00046 10.2614 4.97505 10.3829 4.92522C10.5045 4.87539 10.6149 4.80212 10.7081 4.70958C10.8013 4.61705 10.8754 4.50707 10.926 4.38592C10.9767 4.26477 11.003 4.13482 11.0035 4.0035C11.004 3.87218 10.9785 3.74205 10.9287 3.62055C10.8789 3.49905 10.8056 3.38855 10.7131 3.29537C10.6205 3.20218 10.5106 3.12814 10.3894 3.07746C10.2683 3.02678 10.1383 3.00046 10.007 3ZM21 1.7811e-10H19C18.2056 -2.16246e-06 17.4436 0.315107 16.8812 0.876203C16.3187 1.4373 16.0019 2.19856 16 2.993L14.006 2.979H14C13.7348 2.97807 13.4801 3.08254 13.2919 3.26942C13.1037 3.4563 12.9974 3.71028 12.9965 3.9755C12.9956 4.24072 13.1 4.49544 13.2869 4.68363C13.4738 4.87182 13.7278 4.97807 13.993 4.979L16 4.993V5C16 5.79565 16.3161 6.55871 16.8787 7.12132C17.4413 7.68393 18.2044 8 19 8H19.014L19 9.993C18.9991 10.1243 19.024 10.2545 19.0734 10.3762C19.1228 10.4979 19.1957 10.6087 19.2879 10.7022C19.3801 10.7957 19.4899 10.8701 19.6108 10.9212C19.7318 10.9723 19.8617 10.9991 19.993 11H20C20.264 11 20.5173 10.8956 20.7046 10.7096C20.892 10.5236 20.9982 10.271 21 10.007L21.014 8C21.8072 7.9963 22.5667 7.67859 23.1263 7.11639C23.6859 6.55418 24 5.79323 24 5V3C24 2.20435 23.6839 1.44129 23.1213 0.87868C22.5587 0.31607 21.7956 1.7811e-10 21 1.7811e-10ZM21.007 16L21.021 14.006C21.0218 13.8747 20.9967 13.7445 20.9472 13.6229C20.8977 13.5012 20.8247 13.3905 20.7324 13.2971C20.6401 13.2037 20.5303 13.1294 20.4092 13.0784C20.2882 13.0274 20.1583 13.0008 20.027 13H20.021C19.757 13 19.5037 13.1044 19.3164 13.2904C19.129 13.4764 19.0228 13.729 19.021 13.993L19.007 16H19C18.2044 16 17.4413 16.3161 16.8787 16.8787C16.3161 17.4413 16 18.2044 16 19V19.014L14.007 19H14C13.7348 18.9991 13.4801 19.1035 13.2919 19.2904C13.1037 19.4773 12.9974 19.7313 12.9965 19.9965C12.9956 20.2617 13.1 20.5164 13.2869 20.7046C13.4738 20.8928 13.7278 20.9991 13.993 21L16 21.014C16.0037 21.8072 16.3214 22.5667 16.8836 23.1263C17.4458 23.6859 18.2068 24 19 24H21C21.7956 24 22.5587 23.6839 23.1213 23.1213C23.6839 22.5587 24 21.7956 24 21V19C24 18.2056 23.6849 17.4436 23.1238 16.8812C22.5627 16.3187 21.8014 16.0019 21.007 16ZM10.007 19.021L8 19.007V19C8 18.2044 7.68393 17.4413 7.12132 16.8787C6.55871 16.3161 5.79565 16 5 16H4.986L5 14.007C5.00092 13.8757 4.97597 13.7455 4.92656 13.6238C4.87716 13.5021 4.80427 13.3913 4.71206 13.2978C4.61985 13.2043 4.51013 13.1299 4.38915 13.0788C4.26818 13.0277 4.13832 13.0009 4.007 13H4C3.73599 13 3.48269 13.1044 3.29536 13.2904C3.10802 13.4764 3.00185 13.729 3 13.993L2.986 16C2.19278 16.0037 1.43331 16.3214 0.873724 16.8836C0.314139 17.4458 -8.63726e-06 18.2068 1.78109e-10 19L1.78109e-10 21C1.7811e-10 21.7956 0.31607 22.5587 0.87868 23.1213C1.44129 23.6839 2.20435 24 3 24H5C5.79444 24 6.55644 23.6849 7.11885 23.1238C7.68126 22.5627 7.99815 21.8014 8 21.007L9.994 21.021H10C10.2652 21.0219 10.5199 20.9175 10.7081 20.7306C10.8963 20.5437 11.0026 20.2897 11.0035 20.0245C11.0044 19.7593 10.9 19.5046 10.7131 19.3164C10.5262 19.1282 10.2722 19.0219 10.007 19.021Z" fill="#D8B083"/>
    </g>
    <defs>
        <clipPath id="clip0_310_3330">
            <rect width="24" height="24" fill="white"/>
        </clipPath>
    </defs>
</svg>
