<svg width="20" height="20" viewBox="0 0 20 20" fill="none" xmlns="http://www.w3.org/2000/svg">
    <path d="M19.9477 7.28054C19.8836 7.08269 19.7628 6.90803 19.6003 6.77825C19.4378 6.64847 19.2407 6.56929 19.0336 6.55053L13.2601 6.02638L10.9785 0.684487C10.81 0.292019 10.4267 0.0387726 10.0001 0.0387726C9.57341 0.0387726 9.18996 0.292019 9.02258 0.684487L6.74089 6.02638L0.966574 6.55053C0.543247 6.58959 0.184803 6.87631 0.0523786 7.28054C-0.0121484 7.47856 -0.0171677 7.69116 0.0379424 7.89201C0.0930526 8.09286 0.205871 8.27312 0.362423 8.41048L4.72668 12.2373L3.4399 17.9048C3.34576 18.3216 3.50748 18.7525 3.85327 19.0024C4.03437 19.1342 4.25262 19.2051 4.4766 19.2049C4.66858 19.2049 4.85697 19.1528 5.02165 19.0541L10.0001 16.0774L14.9776 19.0541C15.1561 19.161 15.3621 19.213 15.57 19.2038C15.7779 19.1946 15.9785 19.1246 16.1469 19.0024C16.4926 18.7525 16.6544 18.3216 16.5602 17.9048L15.2734 12.2373L19.6377 8.41052C19.7943 8.27317 19.9071 8.09291 19.9622 7.89206C20.0173 7.69121 20.0123 7.4786 19.9477 7.28058V7.28054Z" fill="#DEC5A7"/>
</svg>
