<svg width="20" height="20" viewBox="0 0 20 20" fill="none" xmlns="http://www.w3.org/2000/svg">
    <path d="M14.7649 2.54085C13.9004 1.83298 12.8895 1.32581 11.8053 1.05589C10.721 0.785984 9.59039 0.760068 8.4949 0.980016C7.08634 1.2688 5.79048 1.95639 4.76168 2.96089C3.73288 3.96538 3.01451 5.24444 2.69215 6.6457C2.36978 8.04695 2.457 9.51134 2.94343 10.8644C3.42985 12.2175 4.29497 13.4022 5.43574 14.2775C6.73818 15.2308 7.84711 16.4234 8.70324 17.7917L9.28657 18.7617C9.36066 18.8849 9.46536 18.9868 9.5905 19.0576C9.71564 19.1284 9.85697 19.1656 10.0007 19.1656C10.1445 19.1656 10.2858 19.1284 10.411 19.0576C10.5361 18.9868 10.6408 18.8849 10.7149 18.7617L11.2741 17.83C12.0196 16.5195 13.0361 15.3831 14.2557 14.4967C15.2121 13.8387 16.0024 12.9675 16.5644 11.9518C17.1264 10.9361 17.4447 9.80367 17.4942 8.6439C17.5436 7.48413 17.3229 6.32874 16.8494 5.26888C16.3759 4.20901 15.6626 3.27368 14.7657 2.53668L14.7649 2.54085ZM9.9999 11.6667C9.34063 11.6667 8.69617 11.4712 8.148 11.1049C7.59984 10.7386 7.1726 10.218 6.9203 9.60896C6.66801 8.99987 6.602 8.32965 6.73062 7.68305C6.85924 7.03645 7.17671 6.4425 7.64288 5.97633C8.10906 5.51015 8.703 5.19268 9.3496 5.06406C9.99621 4.93545 10.6664 5.00146 11.2755 5.25375C11.8846 5.50604 12.4052 5.93328 12.7715 6.48145C13.1377 7.02961 13.3332 7.67408 13.3332 8.33335C13.3332 9.2174 12.982 10.0653 12.3569 10.6904C11.7318 11.3155 10.884 11.6667 9.9999 11.6667Z" fill="white"/>
</svg>
