<svg width="20" height="20" viewBox="0 0 20 20" fill="none" xmlns="http://www.w3.org/2000/svg">
    <path d="M14.765 2.54085C13.9005 1.83298 12.8896 1.32581 11.8054 1.05589C10.7211 0.785984 9.59048 0.760068 8.495 0.980016C7.08643 1.2688 5.79057 1.95639 4.76177 2.96089C3.73298 3.96538 3.01461 5.24444 2.69224 6.6457C2.36987 8.04695 2.4571 9.51134 2.94352 10.8644C3.42994 12.2175 4.29506 13.4022 5.43583 14.2775C6.73827 15.2308 7.8472 16.4234 8.70333 17.7917L9.28666 18.7617C9.36075 18.8849 9.46545 18.9868 9.59059 19.0576C9.71573 19.1284 9.85706 19.1656 10.0008 19.1656C10.1446 19.1656 10.2859 19.1284 10.4111 19.0576C10.5362 18.9868 10.6409 18.8849 10.715 18.7617L11.2742 17.83C12.0197 16.5195 13.0362 15.3831 14.2558 14.4967C15.2122 13.8387 16.0025 12.9675 16.5645 11.9518C17.1265 10.9361 17.4448 9.80367 17.4943 8.6439C17.5437 7.48413 17.323 6.32874 16.8495 5.26888C16.376 4.20901 15.6627 3.27368 14.7658 2.53668L14.765 2.54085ZM10 11.6667C9.34072 11.6667 8.69626 11.4712 8.14809 11.1049C7.59993 10.7386 7.17269 10.218 6.9204 9.60896C6.6681 8.99987 6.60209 8.32965 6.73071 7.68305C6.85933 7.03645 7.1768 6.4425 7.64297 5.97633C8.10915 5.51015 8.70309 5.19268 9.34969 5.06406C9.9963 4.93545 10.6665 5.00146 11.2756 5.25375C11.8847 5.50604 12.4053 5.93328 12.7716 6.48145C13.1378 7.02961 13.3333 7.67408 13.3333 8.33335C13.3333 9.2174 12.9821 10.0653 12.357 10.6904C11.7319 11.3155 10.8841 11.6667 10 11.6667Z" fill="#A3864D"/>
</svg>
